<svg fill="none" height="60" viewBox="0 0 199 60" width="199" xmlns="http://www.w3.org/2000/svg" class="icon"><rect height="57" rx="5" stroke-width="2" stroke="#333" width="197" x="1" y="1.52054" class="icon__border"></rect> <path d="M74.7162 38.5205H77.121L70.352 20.1602H68.0871L61.3181 38.5205H63.7229L65.5678 33.2656H72.8713L74.7162 38.5205ZM69.1814 22.9467H69.2577L72.1969 31.3189H66.2422L69.1814 22.9467ZM85.3024 25.0588C83.3811 25.0588 81.8415 26.0385 81.0272 27.5272H80.9763V25.2878H78.8769V42.9357H81.0908V36.3702H81.1417C81.9306 37.8207 83.4574 38.7496 85.3533 38.7496C88.6869 38.7496 90.9644 36.0521 90.9644 31.9042C90.9644 27.7562 88.6742 25.0588 85.3024 25.0588ZM84.8698 36.8028C82.6049 36.8028 81.0781 34.8561 81.0781 31.9042C81.0781 28.965 82.6049 27.0055 84.8698 27.0055C87.2236 27.0055 88.6996 28.9141 88.6996 31.9042C88.6996 34.907 87.2236 36.8028 84.8698 36.8028ZM99.6293 25.0588C97.708 25.0588 96.1684 26.0385 95.3541 27.5272H95.3032V25.2878H93.2038V42.9357H95.4177V36.3702H95.4686C96.2575 37.8207 97.7844 38.7496 99.6802 38.7496C103.014 38.7496 105.291 36.0521 105.291 31.9042C105.291 27.7562 103.001 25.0588 99.6293 25.0588ZM99.1967 36.8028C96.9319 36.8028 95.405 34.8561 95.405 31.9042C95.405 28.965 96.9319 27.0055 99.1967 27.0055C101.551 27.0055 103.027 28.9141 103.027 31.9042C103.027 34.907 101.551 36.8028 99.1967 36.8028ZM112.328 33.5964C112.544 36.7647 115.216 38.8259 119.224 38.8259C123.334 38.8259 126.006 36.701 126.006 33.3038C126.006 30.7082 124.492 29.1813 120.662 28.3415L118.626 27.8962C116.119 27.3491 115.14 26.3566 115.14 24.9061C115.14 23.0357 116.908 21.916 119.198 21.916C121.59 21.916 123.181 23.1502 123.385 25.1606H125.675C125.573 22.0433 122.926 19.8548 119.262 19.8548C115.458 19.8548 112.786 21.9797 112.786 25.0079C112.786 27.6163 114.376 29.2831 118.053 30.0847L120.089 30.53C122.634 31.0899 123.652 32.1078 123.652 33.6473C123.652 35.4541 121.845 36.7647 119.351 36.7647C116.717 36.7647 114.885 35.5686 114.618 33.5964H112.328ZM129.059 22.0942V25.2878H127.087V27.1073H129.059V35.0851C129.059 37.6299 130.001 38.6223 132.431 38.6223C132.953 38.6223 133.564 38.5842 133.831 38.5205V36.6629C133.678 36.6883 133.169 36.7265 132.915 36.7265C131.782 36.7265 131.273 36.1794 131.273 34.9706V27.1073H133.843V25.2878H131.273V22.0942H129.059ZM141.312 38.7496C144.964 38.7496 147.432 36.1157 147.432 31.9042C147.432 27.6799 144.964 25.0588 141.312 25.0588C137.648 25.0588 135.179 27.6799 135.179 31.9042C135.179 36.1157 137.648 38.7496 141.312 38.7496ZM141.312 36.8028C138.971 36.8028 137.432 35.0215 137.432 31.9042C137.432 28.7869 138.971 27.0055 141.312 27.0055C143.653 27.0055 145.18 28.7869 145.18 31.9042C145.18 35.0215 143.653 36.8028 141.312 36.8028ZM149.672 38.5205H151.886V30.2755C151.886 28.4052 153.005 27.171 154.723 27.171C155.258 27.171 155.728 27.2346 155.906 27.2982V25.1479C155.728 25.1224 155.398 25.0588 155.016 25.0588C153.463 25.0588 152.242 25.9876 151.809 27.4509H151.759V25.2878H149.672V38.5205ZM165.856 34.7289C165.487 35.9758 164.253 36.8283 162.574 36.8283C160.194 36.8283 158.706 35.1615 158.706 32.6294V32.5022H168.198V31.6624C168.198 27.6545 165.996 25.0588 162.421 25.0588C158.769 25.0588 156.428 27.8453 156.428 31.9551C156.428 36.1157 158.731 38.7496 162.523 38.7496C165.411 38.7496 167.65 37.0446 168.032 34.7289H165.856ZM162.383 26.9801C164.47 26.9801 165.856 28.5578 165.907 30.7718H158.718C158.858 28.5706 160.309 26.9801 162.383 26.9801Z" class="icon__label" fill="#333"></path> <path clip-rule="evenodd" d="M38.0282 10.5205C36.1276 10.6 33.8247 11.7828 32.4617 13.373C31.2364 14.7852 30.1669 17.039 30.4553 19.2C32.5772 19.3655 34.7394 18.1261 36.0602 16.5351C37.3785 14.9413 38.271 12.7294 38.0282 10.5205ZM37.4909 48.1298C40.066 48.0819 41.697 45.8003 43.2738 43.5046C45.0015 40.9899 45.7644 38.5518 45.8782 38.1882C45.8845 38.1679 45.8888 38.1541 45.8912 38.1471C45.89 38.1466 45.8868 38.1453 45.8817 38.1432C45.634 38.0429 40.8676 36.1123 40.8202 30.5317C40.7737 25.9233 44.4626 23.6308 44.8687 23.3785C44.8828 23.3697 44.893 23.3634 44.8989 23.3595C42.6785 20.1246 39.2211 19.681 37.9892 19.6304C36.1898 19.4491 34.444 20.1343 33.0176 20.6942C32.1112 21.05 31.3338 21.3552 30.7535 21.3552C30.1076 21.3552 29.3088 21.0394 28.4124 20.6849C27.2391 20.2211 25.8985 19.691 24.5145 19.7164C21.3089 19.7642 18.3507 21.575 16.6998 24.4371C13.366 30.2002 15.8449 38.7398 19.0927 43.4127C20.6824 45.6981 22.5728 48.2702 25.0588 48.1776C26.1688 48.1332 26.9587 47.7981 27.7757 47.4515C28.7199 47.051 29.7001 46.6352 31.2522 46.6352C32.7303 46.6352 33.6652 47.0381 34.5645 47.4258C35.4245 47.7965 36.2519 48.1531 37.4909 48.1298Z" fill-rule="evenodd" class="icon__label" fill="#333"></path></svg>