<svg fill="none" height="61" viewBox="0 0 201 61" width="201" xmlns="http://www.w3.org/2000/svg" class="icon"><path d="M1 7C1 3.68629 3.68629 1 7 1H194C197.314 1 200 3.68629 200 7V54C200 57.3137 197.314 60 194 60H7C3.6863 60 1 57.3137 1 54V7Z" stroke-width="2"  stroke="#333" class="icon__border" ></path> <path clip-rule="evenodd" d="M69.0786 27.5692V30.2489H75.419C75.3195 31.511 74.8023 32.702 73.9513 33.6283C72.6686 34.9536 70.8934 35.6674 69.0639 35.5934C65.1732 35.5934 62.0191 32.3941 62.0191 28.4475C62.0191 24.501 65.1732 21.3016 69.0639 21.3016C70.8513 21.2721 72.5772 21.9627 73.8632 23.2221L75.7272 21.3314C73.9732 19.5298 71.5747 18.5255 69.0786 18.5475C65.5253 18.4072 62.1811 20.2501 60.3633 23.3502C58.5456 26.4503 58.5456 30.3108 60.3633 33.4109C62.1811 36.511 65.5253 38.3539 69.0786 38.2136C71.6203 38.3301 74.0874 37.3258 75.8446 35.4594C77.3822 33.7458 78.2032 31.4931 78.1342 29.177C78.1389 28.6128 78.0897 28.0494 77.9874 27.4947L69.0786 27.5692ZM85.3551 25.6189C81.9121 25.6272 79.1268 28.4635 79.1322 31.9559C79.1376 35.4483 81.9317 38.2758 85.3747 38.2731C88.8177 38.2703 91.6074 35.4384 91.6074 31.946C91.6316 30.2554 90.9782 28.6272 89.7967 27.4344C88.6153 26.2417 87.0071 25.5865 85.3405 25.6189H85.3551ZM92.8109 31.9658C92.8002 28.4753 95.5781 25.6354 99.0192 25.6189C100.686 25.5865 102.294 26.2417 103.475 27.4344C104.657 28.6272 105.31 30.2554 105.286 31.946C105.286 35.4365 102.499 38.2675 99.0583 38.273C95.6172 38.2784 92.8217 35.4562 92.8109 31.9658ZM95.3383 33.611C96.0085 35.0341 97.4682 35.8969 99.0192 35.7869C99.9927 35.764 100.916 35.3432 101.579 34.62C102.242 33.8968 102.589 32.9325 102.542 31.946C102.538 30.3689 101.584 28.9544 100.136 28.3791C98.6887 27.8038 97.0415 28.1845 95.9825 29.3392C94.9235 30.494 94.6681 32.188 95.3383 33.611ZM81.6644 33.6225C82.3394 35.0446 83.8033 35.9032 85.3551 35.7869H85.3404C86.3139 35.764 87.237 35.3432 87.9003 34.62C88.5635 33.8968 88.9106 32.9326 88.8628 31.946C88.8586 30.3677 87.9029 28.9526 86.4534 28.3785C85.004 27.8045 83.3559 28.1883 82.2984 29.3462C81.241 30.5041 80.9895 32.2003 81.6644 33.6225ZM130.237 25.619C132.67 25.7099 134.795 27.3149 135.579 29.6534L135.887 30.3233L127.536 33.8218C128.06 35.0309 129.259 35.7925 130.56 35.7422C131.816 35.7455 132.981 35.0782 133.627 33.9856L135.755 35.4743C134.597 37.2331 132.645 38.2845 130.56 38.2731C128.902 38.2977 127.306 37.6376 126.137 36.4443C124.969 35.251 124.33 33.6272 124.366 31.946C124.264 30.3032 124.838 28.6912 125.95 27.4926C127.062 26.294 128.614 25.6157 130.237 25.619ZM127.066 31.7674C127.006 30.8372 127.318 29.9216 127.931 29.227C128.544 28.5324 129.407 28.1174 130.325 28.0754C131.292 28.0107 132.205 28.5379 132.644 29.4152L127.066 31.7674ZM123.03 37.8999H120.286V19.291H123.03V37.8999ZM115.795 27.0333H115.692C114.855 26.0845 113.659 25.5429 112.404 25.5446C109.073 25.7084 106.455 28.4959 106.455 31.8791C106.455 35.2622 109.073 38.0497 112.404 38.2136C113.663 38.235 114.867 37.6899 115.692 36.7248H115.78V37.633C115.78 40.0596 114.503 41.3548 112.448 41.3548C111.049 41.3215 109.808 40.4333 109.308 39.1068L106.915 40.1191C107.836 42.3921 110.026 43.8705 112.448 43.8558C115.663 43.8558 118.319 41.9354 118.319 37.2608V25.9912H115.795V27.0333ZM112.649 35.7865L112.654 35.7869H112.639L112.649 35.7865ZM115.122 34.5927C114.493 35.3156 113.599 35.7467 112.649 35.7865C110.689 35.6089 109.186 33.9428 109.186 31.946C109.186 29.9477 110.691 28.2805 112.654 28.1051C113.602 28.1545 114.491 28.5901 115.118 29.3132C115.745 30.0363 116.058 30.9857 115.986 31.946C116.066 32.9108 115.755 33.8671 115.122 34.5927ZM148.436 19.291H141.875V37.9H144.62V30.8434H148.45C150.583 30.9988 152.622 29.9331 153.734 28.0818C154.847 26.2306 154.847 23.9039 153.734 22.0526C152.622 20.2013 150.583 19.1356 148.45 19.291H148.436ZM144.605 28.2241H148.436L148.495 28.2688C150.233 28.2688 151.643 26.8391 151.643 25.0755C151.643 23.3119 150.233 21.8823 148.495 21.8823H144.605V28.2241ZM165.358 25.5445C163.316 25.4207 161.396 26.5376 160.471 28.3879L162.907 29.4152C163.398 28.4976 164.376 27.9605 165.402 28.0455C166.106 27.9622 166.813 28.1691 167.365 28.6198C167.917 29.0705 168.267 29.7272 168.337 30.4424V30.6359C167.456 30.1625 166.473 29.9171 165.476 29.9213C162.848 29.9213 160.192 31.4101 160.192 34.1047C160.244 35.2654 160.757 36.3554 161.614 37.1265C162.471 37.8976 163.599 38.2843 164.742 38.1986C166.15 38.3012 167.5 37.6161 168.264 36.4122H168.352V37.9009H170.994V30.7401C170.994 27.4798 168.558 25.5891 165.431 25.5891L165.358 25.5445ZM162.878 34.1642C162.878 35.2807 164.125 35.7422 165.021 35.7422L165.094 35.7869C166.747 35.746 168.118 34.4759 168.308 32.8094C167.547 32.3783 166.685 32.1624 165.813 32.1842C164.433 32.1842 162.878 32.6754 162.878 34.1642ZM180.622 25.9911L177.481 34.06H177.393L174.135 25.9911H171.199L176.087 37.2756L173.298 43.5432H176.16L183.675 25.9911H180.622ZM158.695 37.8999H155.95V19.291H158.695V37.8999Z" fill-rule="evenodd" fill="#333" class="icon__label"></path> <path d="M16.3273 13.1348C15.8428 13.7151 15.5983 14.458 15.6435 15.212V48.0318C15.5983 48.7858 15.8428 49.5287 16.3273 50.109L16.4314 50.2129L34.8492 31.8445V31.4142L16.4314 13.0309L16.3273 13.1348Z" class="icon__label" fill="#333" ></path> <path d="M40.9438 37.9727L34.8492 31.845V31.4147L40.9438 25.2722L41.0776 25.3464L48.3764 29.4859C50.4575 30.658 50.4575 32.5869 48.3764 33.7738L41.1074 37.8985L40.9438 37.9727Z" class="icon__label" fill="#333"></path> <path d="M41.1222 37.8838L34.8492 31.6224L16.3273 50.1096C17.2025 50.8775 18.5012 50.9149 19.4193 50.1986L41.1371 37.8838" class="icon__label" fill="#333"></path> <path d="M41.1223 25.3612L19.4044 13.0464C18.4864 12.3302 17.1876 12.3675 16.3125 13.1354L34.8492 31.6224L41.1223 25.3612Z" class="icon__label" fill="#333"></path> <path d="M40.9439 37.7502L19.4044 49.9908C18.523 50.6486 17.3128 50.6486 16.4314 49.9908L16.3273 50.0947L16.4314 50.1985C17.3112 50.8613 18.5246 50.8613 19.4044 50.1985L41.1223 37.8838L40.9439 37.7502Z" opacity="0.2" class="icon__label" fill="#333"></path> <path clip-rule="evenodd" d="M40.9438 37.7502L48.3764 33.5513C49.1445 33.1729 49.6935 32.4605 49.8629 31.6224C49.7863 32.5489 49.2194 33.3638 48.3764 33.759L41.0776 37.8837L40.9438 37.7502ZM15.6403 48.1134C15.6648 48.7662 15.9048 49.3958 16.3273 49.9018L16.4314 50.0205L16.3273 50.1243C15.857 49.5611 15.6128 48.8446 15.6403 48.1134ZM15.6403 48.1134C15.6411 48.0914 15.6422 48.0693 15.6435 48.0472V47.8246C15.6377 47.9212 15.6367 48.0176 15.6403 48.1134Z" fill-rule="evenodd" opacity="0.12" class="icon__label" fill="#333"></path> <path d="M19.4044 13.2541L48.3764 29.6936C49.1445 30.0721 49.6935 30.7844 49.8629 31.6225C49.7863 30.696 49.2194 29.8812 48.3764 29.4859L19.4044 13.0464C17.3233 11.8742 15.6287 12.8535 15.6287 15.2274V15.45C15.6733 13.0612 17.3381 12.0819 19.4044 13.2541Z" opacity="0.25" class="icon__label" fill="#333"></path></svg>