<svg fill="none" height="34" viewBox="0 0 155 34" width="155" xmlns="http://www.w3.org/2000/svg"><path d="M43.3 29.2L47.1 0.1H53.5L51.9 12.2C52.8 11.1 53.9 10.3 55 9.7 56.1 9 57.3 8.7 58.6 8.7 59.5 8.7 60.3 8.9 61 9.2 61.8 9.5 62.4 9.9 63 10.5 63.5 11.2 63.9 12 64.2 12.9 64.5 13.9 64.7 15 64.7 16.4 64.7 18.1 64.4 19.8 63.8 21.4 63.2 23 62.4 24.4 61.5 25.6 60.5 26.8 59.4 27.8 58.1 28.5 56.8 29.2 55.5 29.5 54.1 29.5 53 29.5 52.1 29.3 51.3 29 50.4 28.6 49.8 28.1 49.2 27.4L49.1 27.6C48.8 28.6 47.8 29.2 46.8 29.2H43.3ZM56 13.3C55.6 13.3 55.1 13.5 54.6 13.8 54.1 14.1 53.6 14.6 53.1 15.1 52.7 15.7 52.3 16.3 51.9 17.1 51.5 17.9 51.1 18.7 50.9 19.5L50.2 24.2C50.6 24.5 51.1 24.8 51.6 24.9 52.1 25 52.6 25.1 53 25.1 53.8 25.1 54.5 24.9 55.1 24.4 55.8 23.9 56.3 23.3 56.8 22.6 57.2 21.8 57.6 20.9 57.8 20 58.1 19 58.2 18 58.2 17 58.2 15.7 58 14.8 57.6 14.2 57.2 13.6 56.7 13.3 56 13.3ZM84.1 29.2H81.7C80 29.2 78.5 27.9 78.5 26.3 78.5 26.1 78.6 26 78.6 25.9 77.7 27 76.7 27.9 75.6 28.6 74.5 29.2 73.3 29.5 72 29.5 71.2 29.5 70.5 29.4 69.8 29.1 69 28.8 68.4 28.4 67.8 27.8 67.3 27.2 66.8 26.4 66.5 25.5 66.2 24.6 66 23.5 66 22.3 66 20.4 66.4 18.7 67.1 17.1 67.8 15.4 68.8 14 70.1 12.8 71.4 11.5 72.9 10.5 74.7 9.8 76.4 9.1 78.4 8.7 80.5 8.7 81.5 8.7 82.6 8.8 83.6 8.9 84.7 9.1 85.7 9.3 86.8 9.6L84.1 29.2ZM74.6 24.8C75.1 24.8 75.5 24.6 76 24.3 76.4 23.9 76.8 23.5 77.2 22.9 77.6 22.3 78 21.7 78.3 20.9 78.7 20.1 79 19.3 79.2 18.5L80 12.9H79.6C78.5 12.9 77.6 13.1 76.7 13.5 75.8 14 75.1 14.6 74.4 15.3 73.8 16.1 73.3 17 73 18 72.6 19 72.5 20.1 72.5 21.2 72.5 21.8 72.5 22.4 72.6 22.9 72.7 23.3 72.9 23.7 73.1 24 73.3 24.2 73.5 24.4 73.8 24.6 74 24.7 74.3 24.8 74.6 24.8ZM88.2 29.2L90.9 9H92.3C94.5 9 96.3 10.7 96.3 12.8 96.3 13 96.3 13.1 96.3 13.2 97.2 11.8 98.1 10.8 99 10 100 9.3 101 8.9 102.1 8.9 102.7 8.9 103.2 9 103.8 9.3L102.6 14.9C101.9 14.6 101.3 14.5 100.6 14.5 99.5 14.5 98.6 14.9 97.8 15.8 96.9 16.7 96.3 18.2 95.7 20.1L94.6 29.2H88.2ZM106 24.9V24.5C106 24.4 106 24.2 106 24 106 23.7 106.1 23.4 106.1 23 106.2 22.6 106.2 22.1 106.3 21.5L107.4 13.2H105.7C105.4 13.2 105.2 13.1 105 13 104.8 12.8 104.7 12.6 104.7 12.2 104.7 12.2 104.8 12.1 104.8 11.9 104.8 11.7 104.8 11.5 104.9 11.2 104.9 11 104.9 10.7 105 10.5 105 10.3 105 10.2 105 10.2L105.2 9.1 108.3 9 108.9 5.5C109.1 4.2 110.3 3.2 111.8 3.2H115.1L114.3 9.1H119.1L119.1 9.4C118.8 11.6 116.8 13.2 114.5 13.2H113.8L112.7 21.1C112.6 21.7 112.6 22.1 112.5 22.4 112.5 22.7 112.5 22.9 112.5 23.1 112.5 23.2 112.4 23.3 112.4 23.4 112.4 23.5 112.4 23.5 112.4 23.5 112.4 23.9 112.5 24.2 112.7 24.5 112.9 24.7 113.2 24.8 113.6 24.8 113.8 24.8 114 24.8 114.1 24.8 114.2 24.7 114.6 24.6 115.2 24.4L117.3 27.8C116.4 28.4 115.5 28.8 114.5 29.1 113.5 29.4 112.5 29.5 111.5 29.5 110.7 29.5 109.9 29.4 109.3 29.2 108.6 29 108 28.7 107.6 28.3 107.1 27.9 106.7 27.4 106.4 26.8 106.2 26.2 106 25.6 106 24.9ZM138.3 14C138.3 14.9 138.1 15.8 137.7 16.5 137.3 17.3 136.6 18 135.7 18.6 134.7 19.2 133.4 19.7 131.7 20.1 130.1 20.5 128.1 20.8 125.6 21 125.6 22.4 125.9 23.4 126.5 24.1 127.2 24.7 128.1 25 129.3 25 129.9 25 130.4 25 130.8 24.9 131.2 24.8 131.6 24.7 131.9 24.5 133.8 23.7 136 24 137.6 25.3L137.8 25.5C137 26.2 136.3 26.8 135.6 27.3 134.8 27.8 134.1 28.2 133.3 28.6 132.5 28.9 131.7 29.1 130.8 29.3 130 29.4 129 29.5 128 29.5 126.7 29.5 125.5 29.3 124.5 28.9 123.4 28.5 122.5 27.9 121.7 27.2 120.9 26.4 120.3 25.5 119.9 24.5 119.5 23.4 119.3 22.3 119.3 21 119.3 19.9 119.4 18.9 119.7 17.8 119.9 16.8 120.3 15.8 120.8 14.9 121.2 14 121.8 13.2 122.5 12.5 123.2 11.7 124 11 124.9 10.5 125.7 10 126.7 9.5 127.7 9.2 128.8 8.9 129.9 8.8 131 8.8 132.2 8.8 133.2 8.9 134.1 9.2 135 9.5 135.8 10 136.4 10.5 137 11 137.5 11.5 137.8 12.1 138.1 12.8 138.3 13.4 138.3 14ZM130.7 12.8C129.6 12.8 128.7 13.2 127.9 14 127 14.8 126.4 15.9 126 17.3 127.4 17.1 128.5 16.9 129.3 16.7 130.1 16.5 130.8 16.2 131.3 16 131.7 15.7 132 15.5 132.2 15.2 132.3 14.9 132.4 14.6 132.4 14.2 132.4 13.9 132.3 13.6 132 13.3 131.7 13 131.3 12.8 130.7 12.8ZM139.4 29.2L142 9H143C145.5 9 147.5 10.9 147.5 13.2 148.3 11.8 149.2 10.8 150.2 10 151.2 9.3 152.2 8.9 153.2 8.9 153.8 8.9 154.4 9 154.9 9.3L153.8 14.9C153.1 14.6 152.4 14.5 151.7 14.5 150.7 14.5 149.7 14.9 148.9 15.8 148.1 16.7 147.4 18.2 146.9 20.1L145.7 29.2H139.4Z" class="text" fill="#333"></path> <path d="M26.9 14.5C31.9 10.9 42.4-1.9 26.1 0.4 19 1.3 10.2 6.7 8.1 13.5 7 11.7 5.8 9.9 4.5 8.2 2.5 5.9-1.4 8.2 0.8 10.6 7 17.4 11.2 25.6 11.2 33.9 11.7 29.8 12.6 24.3 10.7 19.4 11.4 19.8 11.4 19.9 11.9 20.4 15.2 25 20.4 28.9 26.1 30.7 31.3 32.5 38.2 31.5 35.4 24.3 33.9 20.4 30.3 16.9 26.9 14.5Z" class="icon" fill="#F5A623"></path></svg>