<?xml version="1.0" standalone="no"?>
<!DOCTYPE svg PUBLIC "-//W3C//DTD SVG 20010904//EN"
 "http://www.w3.org/TR/2001/REC-SVG-20010904/DTD/svg10.dtd">
<svg version="1.0" xmlns="http://www.w3.org/2000/svg"
 width="233.000000pt" height="64.000000pt" viewBox="0 0 233.000000 64.000000"
 preserveAspectRatio="xMidYMid meet">

<g transform="translate(0.000000,64.000000) scale(0.100000,-0.100000)"
fill="#ffffff" stroke="none">
<path d="M816 493 c-3 -16 -12 -84 -21 -153 -8 -69 -17 -138 -20 -154 -5 -27
-4 -28 28 -22 17 3 39 6 47 5 76 -5 100 -2 120 16 34 31 60 90 60 137 0 81
-53 116 -117 78 l-36 -21 7 70 6 71 -34 0 c-30 0 -35 -4 -40 -27z m138 -157
c18 -73 -41 -150 -92 -117 -10 6 -11 17 -2 54 20 77 80 118 94 63z"/>
<path d="M1608 480 c-9 -6 -19 -24 -23 -40 -5 -21 -13 -30 -26 -30 -23 0 -26
-35 -3 -44 12 -5 14 -15 10 -46 -3 -22 -9 -58 -12 -79 -4 -32 -1 -44 15 -60
22 -22 74 -28 100 -12 19 12 6 41 -20 48 -19 5 -21 11 -15 57 3 28 6 59 6 69
0 11 12 22 29 28 43 15 49 39 10 39 -30 0 -31 1 -24 40 6 35 4 40 -12 40 -10
0 -26 -5 -35 -10z"/>
<path d="M1174 410 c-74 -23 -129 -114 -113 -190 12 -59 72 -80 119 -42 23 18
24 18 42 0 40 -40 52 -22 69 107 9 66 15 121 14 123 -7 8 -105 10 -131 2z m50
-82 c-12 -79 -51 -131 -79 -108 -44 36 7 149 68 150 15 0 16 -6 11 -42z"/>
<path d="M1833 410 c-48 -11 -83 -37 -99 -75 -52 -125 46 -216 167 -155 53 28
41 44 -26 35 -41 -5 -56 -3 -69 10 -28 29 -18 40 47 52 63 12 97 37 97 72 0
44 -57 73 -117 61z m42 -65 c0 -13 -10 -22 -33 -29 -41 -12 -49 -3 -28 29 21
31 61 31 61 0z"/>
<path d="M1351 313 c-6 -54 -14 -111 -17 -126 -6 -27 -5 -28 33 -25 l38 3 7
58 c10 80 26 110 66 122 17 5 32 15 32 21 0 7 3 19 6 28 9 24 -35 20 -62 -5
l-22 -21 -11 21 c-7 12 -22 21 -35 21 -21 0 -23 -6 -35 -97z"/>
<path d="M2000 403 c0 -5 -7 -55 -15 -113 -19 -139 -20 -130 19 -130 37 0 38
1 52 102 6 48 33 83 68 90 11 2 23 15 27 31 6 24 5 27 -16 27 -14 0 -33 -10
-45 -22 l-20 -22 -16 22 c-14 21 -54 31 -54 15z"/>
</g>
</svg>
