<svg width="1146" height="1247" viewBox="0 0 1146 1247" fill="none" xmlns="http://www.w3.org/2000/svg">
<path opacity="0.2" d="M475.519 444.773C415.208 294.865 367.844 -132.441 692.389 146.771C834.504 267.209 950.317 510.101 900.741 687.813C950.245 663.67 1001.39 642.429 1053.91 624.197C1129.45 600.965 1182.21 705.258 1100.98 726.877C869.899 789.583 660.34 909.336 543.293 1090.82C590.26 993.652 649.91 861.124 760.383 780.249C739.181 780.039 737.63 780.048 719.662 784.877C581.254 839.516 414.883 851.76 263.534 811.709C124.205 777.355 -12.8647 656.057 150.032 539.099C238.542 474.895 364.848 449.458 475.519 444.773Z" fill="url(#paint0_linear)"/>
<defs>
<linearGradient id="paint0_linear" x1="157.465" y1="807.664" x2="663.465" y2="101.664" gradientUnits="userSpaceOnUse">
<stop stop-color="#F5A623"/>
<stop offset="0.838622" stop-color="#F5A623" stop-opacity="0"/>
</linearGradient>
</defs>
</svg>
