<svg width="767" height="1248" viewBox="0 0 767 1248" fill="none" xmlns="http://www.w3.org/2000/svg">
<path opacity="0.2" d="M291.445 445.109C351.757 295.2 399.121 -132.105 74.5762 147.107C-67.5393 267.545 -183.352 510.437 -133.776 688.149C-183.28 664.006 -234.422 642.765 -286.946 624.532C-362.484 601.301 -415.241 705.594 -334.015 727.213C-102.934 789.919 106.625 909.672 223.671 1091.15C176.704 993.987 117.055 861.46 6.58177 780.585C27.7837 780.375 29.3353 780.384 47.3033 785.213C185.711 839.851 352.082 852.096 503.431 812.045C642.759 777.691 779.83 656.393 616.932 539.435C528.423 475.23 402.117 449.794 291.445 445.109Z" fill="url(#paint0_linear)"/>
<defs>
<linearGradient id="paint0_linear" x1="609.5" y1="808" x2="103.5" y2="102" gradientUnits="userSpaceOnUse">
<stop offset="0.0126739" stop-color="#F5A623"/>
<stop offset="0.896213" stop-color="#F5A623" stop-opacity="0"/>
</linearGradient>
</defs>
</svg>
